<svg width="40" height="40" viewBox="0 0 40 40" fill="none" xmlns="http://www.w3.org/2000/svg">
  <path
    d="M20 40C31.0457 40 40 31.0457 40 20C40 8.9543 31.0457 0 20 0C8.9543 0 0 8.9543 0 20C0 31.0457 8.9543 40 20 40Z"
    fill="#627EEA" />
  <path d="M20.6224 4.99951V16.087L29.9937 20.2745L20.6224 4.99951Z" fill="white" fill-opacity="0.6" />
  <path d="M20.6225 5L11.25 20.275L20.6225 16.0875V5Z" fill="white" />
  <path d="M20.6218 27.4615V34.9952L29.9993 22.0215L20.6218 27.4615Z" fill="white" fill-opacity="0.6" />
  <path d="M20.6225 34.9952V27.4602L11.25 22.0215L20.6225 34.9952Z" fill="white" />
  <path d="M20.6224 25.7166L29.9937 20.2753L20.6224 16.0903V25.7166Z" fill="white" fill-opacity="0.2" />
  <path d="M11.25 20.2753L20.6225 25.7166V16.0903L11.25 20.2753Z" fill="white" fill-opacity="0.6" />
</svg>