<svg width="40" height="40" viewBox="0 0 40 40" fill="none" xmlns="http://www.w3.org/2000/svg">
  <circle cx="20" cy="20" r="20" fill="#FFE804" />
  <rect x="5" y="8.3335" width="3.33333" height="3.33333" fill="#F1BB00" />
  <rect x="11.6667" y="11.6665" width="3.33333" height="3.33333" fill="#F1BB00" />
  <rect x="18.3333" y="15" width="3.33333" height="3.33333" fill="#F1BB00" />
  <rect x="25" y="18.3335" width="3.33333" height="3.33333" fill="#F1BB00" />
  <rect x="8.33331" y="8.3335" width="3.33333" height="3.33333" fill="#F1BB00" />
  <rect x="15" y="11.6665" width="3.33333" height="3.33333" fill="#F1BB00" />
  <rect x="21.6667" y="15" width="3.33333" height="3.33333" fill="#F1BB00" />
  <rect x="28.3333" y="18.3335" width="3.33333" height="3.33333" fill="#F1BB00" />
  <rect x="11.6667" y="8.3335" width="3.33333" height="3.33333" fill="#F1BB00" />
  <rect x="18.3333" y="11.6665" width="3.33333" height="3.33333" fill="#F1BB00" />
  <rect x="25" y="15" width="3.33333" height="3.33333" fill="#F1BB00" />
  <rect x="31.6667" y="18.3335" width="3.33333" height="3.33333" fill="#F1BB00" />
  <rect x="15" y="8.3335" width="3.33333" height="3.33333" fill="#F1BB00" />
  <rect x="15" y="5" width="3.33333" height="3.33333" fill="#F1BB00" />
  <rect x="15" y="1.6665" width="3.33333" height="3.33333" fill="#F1BB00" />
  <rect x="21.6667" y="11.6665" width="3.33333" height="3.33333" fill="#F1BB00" />
  <rect x="28.3333" y="15" width="3.33333" height="3.33333" fill="#F1BB00" />
  <rect x="35" y="18.3335" width="3.33333" height="3.33333" fill="#F1BB00" />
  <rect x="18.3333" y="8.3335" width="3.33333" height="3.33333" fill="#F1BB00" />
  <rect x="18.3333" y="5" width="3.33333" height="3.33333" fill="#F1BB00" />
  <rect x="18.3333" y="1.6665" width="3.33333" height="3.33333" fill="#F1BB00" />
  <rect x="25" y="11.6665" width="3.33333" height="3.33333" fill="#F1BB00" />
  <rect x="31.6667" y="15" width="3.33333" height="3.33333" fill="#F1BB00" />
  <rect x="23.3333" y="21.6665" width="3.33333" height="3.33333" fill="#F1BB00" />
  <rect x="20" y="21.6665" width="3.33333" height="3.33333" fill="#F1BB00" />
  <rect x="30" y="25" width="3.33333" height="3.33333" fill="#F1BB00" />
  <rect x="20" y="28.3335" width="3.33333" height="3.33333" fill="#F1BB00" />
  <rect x="20" y="31.6665" width="3.33333" height="3.33333" fill="#F1BB00" />
  <rect x="23.3333" y="35" width="3.33333" height="3.33333" fill="#F1BB00" />
  <rect x="16.6667" y="21.6665" width="3.33333" height="3.33333" fill="#F1BB00" />
  <rect x="26.6667" y="25" width="3.33333" height="3.33333" fill="#F1BB00" />
  <rect x="16.6667" y="28.3335" width="3.33333" height="3.33333" fill="#F1BB00" />
  <rect x="16.6667" y="31.6665" width="3.33333" height="3.33333" fill="#F1BB00" />
  <rect x="20" y="35" width="3.33333" height="3.33333" fill="#F1BB00" />
  <rect x="13.3333" y="21.6665" width="3.33333" height="3.33333" fill="#F1BB00" />
  <rect x="23.3333" y="25" width="3.33333" height="3.33333" fill="#F1BB00" />
  <rect x="13.3333" y="28.3335" width="3.33333" height="3.33333" fill="#F1BB00" />
  <rect x="10" y="21.6665" width="3.33333" height="3.33333" fill="#F1BB00" />
  <rect x="20" y="25" width="3.33333" height="3.33333" fill="#F1BB00" />
  <rect x="10" y="28.3335" width="3.33333" height="3.33333" fill="#F1BB00" />
  <rect x="6.66669" y="21.6665" width="3.33333" height="3.33333" fill="#F1BB00" />
  <rect x="16.6667" y="25" width="3.33333" height="3.33333" fill="#F1BB00" />
  <rect x="6.66669" y="28.3335" width="3.33333" height="3.33333" fill="#F1BB00" />
</svg>